<?xml version="1.0" encoding="UTF-8"?>
<!DOCTYPE svg PUBLIC "-//W3C//DTD SVG 1.1//EN" "http://www.w3.org/Graphics/SVG/1.1/DTD/svg11.dtd">
<!-- Creator: CorelDRAW 2018 (64 Bit) -->
<svg xmlns="http://www.w3.org/2000/svg" xml:space="preserve" width="15px" height="15px" version="1.1" style="shape-rendering:geometricPrecision; text-rendering:geometricPrecision; image-rendering:optimizeQuality; fill-rule:evenodd; clip-rule:evenodd"
viewBox="0 0 0.327 0.322"
 xmlns:xlink="http://www.w3.org/1999/xlink">
 <defs>
  <style type="text/css">
   <![CDATA[
    .fil0 {fill:white;fill-rule:nonzero}
   ]]>
  </style>
 </defs>
 <g id="Camada_x0020_1">
  <metadata id="CorelCorpID_0Corel-Layer"/>
  <path class="fil0" d="M0.205 0.215c-0.051,0 -0.093,-0.042 -0.093,-0.094 0,-0.051 0.042,-0.093 0.093,-0.093 0.052,0 0.094,0.042 0.094,0.093 0,0.052 -0.042,0.094 -0.094,0.094zm0 -0.215c-0.067,0 -0.121,0.054 -0.121,0.121 0,0.067 0.054,0.122 0.121,0.122 0.068,0 0.122,-0.055 0.122,-0.122 0,-0.067 -0.054,-0.121 -0.122,-0.121z"/>
  <path class="fil0" d="M0.098 0.211c-0.007,-0.007 -0.019,-0.007 -0.026,0l-0.067 0.066c-0.007,0.007 -0.007,0.019 0,0.026l0.014 0.014c0.007,0.007 0.019,0.007 0.026,0l0.066 -0.066c0.007,-0.008 0.007,-0.02 0,-0.027l-0.013 -0.013z"/>
 </g>
</svg>
