<svg xmlns="http://www.w3.org/2000/svg" width="10" height="7" viewBox="0 0 10 7">
  <path id="users-solid" d="M1.5,35a1,1,0,1,0-1-1A1,1,0,0,0,1.5,35Zm7,0a1,1,0,1,0-1-1A1,1,0,0,0,8.5,35Zm.5.5H8a1,1,0,0,0-.7.291A2.286,2.286,0,0,1,8.469,37.5H9.5A.5.5,0,0,0,10,37v-.5A1,1,0,0,0,9,35.5Zm-4,0a1.75,1.75,0,1,0-1.75-1.75A1.749,1.749,0,0,0,5,35.5Zm1.2.5H6.07A2.416,2.416,0,0,1,3.93,36H3.8A1.8,1.8,0,0,0,2,37.8v.45a.75.75,0,0,0,.75.75h4.5A.75.75,0,0,0,8,38.25V37.8A1.8,1.8,0,0,0,6.2,36Zm-3.5-.209A1,1,0,0,0,2,35.5H1a1,1,0,0,0-1,1V37a.5.5,0,0,0,.5.5H1.53A2.291,2.291,0,0,1,2.7,35.791Z" transform="translate(0 -32)" fill="#fff"/>
</svg>
