<?xml version="1.0" encoding="UTF-8"?>
<!DOCTYPE svg PUBLIC "-//W3C//DTD SVG 1.1//EN" "http://www.w3.org/Graphics/SVG/1.1/DTD/svg11.dtd">
<!-- Creator: CorelDRAW 2018 (64 Bit) -->
<svg xmlns="http://www.w3.org/2000/svg" xml:space="preserve" width="10px" height="10px" version="1.1" style="shape-rendering:geometricPrecision; text-rendering:geometricPrecision; image-rendering:optimizeQuality; fill-rule:evenodd; clip-rule:evenodd"
viewBox="0 0 0.398 0.398"
 xmlns:xlink="http://www.w3.org/1999/xlink">
 <defs>
  <style type="text/css">
   <![CDATA[
    .fil0 {fill:white;fill-rule:nonzero}
   ]]>
  </style>
 </defs>
 <g id="Camada_x0020_1">
  <metadata id="CorelCorpID_0Corel-Layer"/>
  <path class="fil0" d="M0.08 0.159l0.026 0 0 0.193 -0.026 0 0 -0.193zm0.053 0l0.026 0 0 0.193 -0.026 0 0 -0.193zm0.053 0l0.026 0 0 0.193 -0.026 0 0 -0.193zm0.053 0l0.026 0 0 0.193 -0.026 0 0 -0.193zm0.053 0l0.026 0 0 0.193 -0.026 0 0 -0.193zm-0.265 0.216c0,0.013 0.011,0.023 0.026,0.023l0.292 0c0.014,0 0.026,-0.01 0.026,-0.023l0 -0.239 -0.344 0 0 0.239z"/>
  <path class="fil0" d="M0.172 0.034l0.053 0 0 0.034 -0.053 0 0 -0.034zm0.199 0.034l-0.106 0 0 -0.023c0,-0.025 -0.024,-0.045 -0.053,-0.045l-0.026 0c-0.03,0 -0.053,0.02 -0.053,0.045l0 0.023 -0.106 0c-0.015,0 -0.027,0.01 -0.027,0.023 0,0.012 0.012,0.023 0.027,0.023l0.344 0c0.015,0 0.027,-0.011 0.027,-0.023 0,-0.013 -0.012,-0.023 -0.027,-0.023z"/>
 </g>
</svg>
