<?xml version="1.0" encoding="UTF-8"?>
<!DOCTYPE svg PUBLIC "-//W3C//DTD SVG 1.1//EN" "http://www.w3.org/Graphics/SVG/1.1/DTD/svg11.dtd">
<!-- Creator: CorelDRAW 2018 (64 Bit) -->
<svg xmlns="http://www.w3.org/2000/svg" xml:space="preserve" width="10px" height="10px" version="1.1" style="shape-rendering:geometricPrecision; text-rendering:geometricPrecision; image-rendering:optimizeQuality; fill-rule:evenodd; clip-rule:evenodd"
viewBox="0 0 0.811 0.811"
 xmlns:xlink="http://www.w3.org/1999/xlink">
 <defs>
  <style type="text/css">
   <![CDATA[
    .fil0 {fill:white;fill-rule:nonzero}
   ]]>
  </style>
 </defs>
 <g id="Camada_x0020_1">
  <metadata id="CorelCorpID_0Corel-Layer"/>
  <polygon class="fil0" points="0.183,0.614 0.126,0.624 0.029,0.773 0.064,0.811 0.215,0.714 0.224,0.657 0.328,0.552 0.285,0.509 "/>
  <path class="fil0" d="M0.798 0.087c-0.021,-0.018 -0.092,-0.019 -0.111,0l-0.195 0.202 0.107 0.102 0.198 -0.199c0.016,-0.019 0.022,-0.088 0.001,-0.105z"/>
  <path class="fil0" d="M0.676 0.736c-0.034,0 -0.062,-0.027 -0.062,-0.061 0,-0.033 0.028,-0.061 0.062,-0.061 0.033,0 0.061,0.028 0.061,0.061 0,0.034 -0.028,0.061 -0.061,0.061zm-0.31 -0.488l0.002 -0.077c-0.006,-0.049 -0.016,-0.083 -0.048,-0.116 -0.027,-0.027 -0.06,-0.043 -0.095,-0.051 -0.041,-0.008 -0.076,-0.003 -0.108,0.011l0.108 0.111c0.019,0.024 0.031,0.048 0.012,0.07l-0.046 0.041c-0.022,0.025 -0.05,0.019 -0.074,-0.006l-0.104 -0.094c-0.011,0.038 -0.018,0.057 -0.008,0.094 0.009,0.036 0.022,0.068 0.049,0.093 0.027,0.029 0.061,0.037 0.102,0.043 0.019,0.003 0.052,0.003 0.069,0l0.413 0.4c0.113,0.066 0.177,-0.066 0.134,-0.113l-0.406 -0.406z"/>
 </g>
</svg>
