<?xml version="1.0" encoding="UTF-8"?>
<!DOCTYPE svg PUBLIC "-//W3C//DTD SVG 1.1//EN" "http://www.w3.org/Graphics/SVG/1.1/DTD/svg11.dtd">
<!-- Creator: CorelDRAW 2018 (64 Bit) -->
<svg xmlns="http://www.w3.org/2000/svg" xml:space="preserve" width="15px" height="15px" version="1.1" style="shape-rendering:geometricPrecision; text-rendering:geometricPrecision; image-rendering:optimizeQuality; fill-rule:evenodd; clip-rule:evenodd"
viewBox="0 0 0.714 0.694"
 xmlns:xlink="http://www.w3.org/1999/xlink">
 <defs>
  <style type="text/css">
   <![CDATA[
    .fil0 {fill:#666666;fill-rule:nonzero}
   ]]>
  </style>
 </defs>
 <g id="Camada_x0020_1">
  <metadata id="CorelCorpID_0Corel-Layer"/>
  <path class="fil0" d="M0.367 0c-0.11,0 -0.213,0.053 -0.278,0.139l-0.009 -0.029c-0.008,-0.022 -0.031,-0.033 -0.052,-0.026 -0.021,0.007 -0.033,0.03 -0.026,0.051l0.041 0.123c0.006,0.017 0.022,0.028 0.039,0.028 0.004,0 0.008,-0.001 0.013,-0.002l0.122 -0.041c0.021,-0.007 0.033,-0.03 0.026,-0.052 -0.007,-0.021 -0.031,-0.033 -0.052,-0.026l-0.024 0.009c0.049,-0.058 0.122,-0.092 0.2,-0.092 0.147,0 0.266,0.119 0.266,0.265 0,0.146 -0.119,0.265 -0.266,0.265 -0.11,0 -0.211,-0.07 -0.249,-0.174l-0.076 0.029c0.05,0.136 0.181,0.227 0.325,0.227 0.192,0 0.347,-0.156 0.347,-0.347 0,-0.191 -0.155,-0.347 -0.347,-0.347z"/>
 </g>
</svg>
