<?xml version="1.0" encoding="UTF-8"?>
<!DOCTYPE svg PUBLIC "-//W3C//DTD SVG 1.1//EN" "http://www.w3.org/Graphics/SVG/1.1/DTD/svg11.dtd">
<!-- Creator: CorelDRAW 2018 (64 Bit) -->
<svg xmlns="http://www.w3.org/2000/svg" xml:space="preserve" width="88px" height="95px" version="1.1" style="shape-rendering:geometricPrecision; text-rendering:geometricPrecision; image-rendering:optimizeQuality; fill-rule:evenodd; clip-rule:evenodd"
viewBox="0 0 88 95.4"
 xmlns:xlink="http://www.w3.org/1999/xlink">
 <defs>
  <style type="text/css">
   <![CDATA[
    .fil0 {fill:white}
   ]]>
  </style>
 </defs>
 <g id="Camada_x0020_1">
  <metadata id="CorelCorpID_0Corel-Layer"/>
  <g id="_1947441445472">
   <path class="fil0" d="M3.82 95.4l79.78 0c2.43,0 4.4,-1.99 4.4,-4.43l0 -2.25c0,-1.13 -0.92,-2.05 -2.04,-2.05l-1.75 0c0.35,-0.71 0.55,-1.49 0.55,-2.31l0 -29.16c0,-2.91 -2.36,-5.27 -5.27,-5.27l-18.09 0c-0.77,0 -1.39,0.62 -1.39,1.4 0,0.77 0.62,1.39 1.39,1.39l18.09 0c1.37,0 2.48,1.11 2.48,2.48l0 29.16c0,1.02 -0.65,1.95 -1.61,2.31l-42.73 0c-0.98,-0.37 -1.61,-1.32 -1.61,-2.31 0,-2.86 0,-26.32 0,-29.16 0,-1.37 1.11,-2.48 2.48,-2.48l16.38 0c0.78,0 1.4,-0.62 1.4,-1.39 0,-0.78 -0.62,-1.4 -1.4,-1.4l-10.28 0 -0.01 -3.59c3.2,-2.35 5.42,-5.95 5.92,-10.08 3.63,-0.32 6.34,-3.22 6.34,-6.6 0,-2.31 -1.18,-4.45 -3,-5.7 0.19,-0.46 0.3,-0.97 0.3,-1.51l0 -2.73c0,-0.78 -0.63,-1.4 -1.4,-1.4 -0.77,0 -1.4,0.62 -1.4,1.4l0 2.73c0,0.61 -0.48,1.15 -1.18,1.14 -1.93,-0.03 -3.39,-1.62 -3.39,-3.44 0,-0.75 -0.52,-1.41 -1.25,-1.6 -0.75,-0.18 -1.51,0.17 -1.85,0.82 -1.39,2.61 -4.09,4.22 -7.03,4.22l-16 0c-1.34,0 -2.55,-1.09 -2.55,-2.54l0 -10.29c0,-4.39 3.58,-7.97 7.97,-7.97l14.1 0c3.27,0 3.83,1.45 4.14,3.06 0.37,1.91 2.16,3.23 4.15,3.07 1.4,-0.1 2.89,1.11 2.89,2.81l0 1.46c0,0.78 0.63,1.4 1.4,1.4 0.77,0 1.4,-0.62 1.4,-1.4l0 -1.46c0,-3.37 -2.92,-5.82 -5.9,-5.59 -0.59,0.04 -1.1,-0.3 -1.2,-0.82 -0.7,-3.58 -2.95,-5.32 -6.88,-5.32l-14.1 0c-5.93,0 -10.76,4.83 -10.76,10.76l0 10.29c0,1.46 0.59,2.79 1.55,3.75 -1.36,1.28 -2.18,3.05 -2.18,4.88 0,3.36 2.69,6.27 6.34,6.58 0.48,4.05 2.62,7.68 5.9,10.06l0 3.61c-3.74,1.46 -14.98,5.85 -18.76,7.32 0,0.01 -0.01,0.01 -0.02,0.01 -3.92,1.62 -8.14,6.24 -8.14,12.58l0 21.73c0,2.11 1.71,3.83 3.82,3.83l0 0zm46.79 -69.03c0.44,-0.05 0.88,-0.18 1.24,-0.34 1.3,0.66 2.2,2.1 2.2,3.63 0,1.91 -1.52,3.45 -3.44,3.77l0 -7.06zm-29.7 7.06c-1.92,-0.31 -3.44,-1.85 -3.44,-3.75 0,-1.34 0.82,-2.68 2.05,-3.41 0.6,0.13 1.02,0.12 1.39,0.12l0 7.04zm64.3 56.04l0 1.5c0,0.9 -0.72,1.63 -1.61,1.63l-49.22 0c-0.88,0 -1.6,-0.73 -1.6,-1.63l0 -1.5 52.43 0zm-46.71 -39.54c-2.46,0 -4.53,1.69 -5.11,3.97l-3.69 -3.69c0.02,-0.23 0.01,0.19 0.01,-2.3 2.02,0.87 4.13,1.25 6.24,1.25 2.08,0 4.06,-0.43 5.85,-1.22l0 1.99 -3.3 0zm-14.8 -15.43l0 -8.11 12.95 0c3.09,0 5.96,-1.32 7.96,-3.52 0.65,1.35 1.78,2.42 3.17,3.02 0.01,0 0.02,0.01 0.04,0.01l0 8.6c0,4.03 -2.05,7.75 -5.38,9.93 -8,5.07 -18.74,-0.37 -18.74,-9.93l0 0zm4.33 17.99l5.2 5.19 0 2.67 -1.4 1.4c-0.18,0.18 -0.48,0.18 -0.67,0l-7.53 -7.54 4.4 -1.72zm-25.23 17.35c0,-5.39 3.82,-8.92 6.39,-9.99l11.6 -4.53 8.4 8.4c1.09,1.1 2.77,1.25 4.04,0.46l0 20.18c0,0.77 0.18,1.58 0.54,2.31l-1.74 0c-1.13,0 -2.04,0.92 -2.04,2.05l0 2.25c0,0.58 0.11,1.14 0.31,1.63l-15.75 0c0,-2.36 0,-17.28 0,-20.8 0,-0.78 -0.62,-1.4 -1.39,-1.4 -0.77,0 -1.4,0.62 -1.4,1.4l0 3.43 -8.96 0 0 -5.39zm0 8.18l8.96 0 0 3.48 -8.96 0 0 -3.48zm0 6.27l8.96 0 0 8.31 -7.94 0c-0.56,0 -1.02,-0.46 -1.02,-1.02l0 -7.29z"/>
   <path class="fil0" d="M43.39 62.9c-0.83,0.41 -1.34,1.24 -1.34,2.16 0,0.92 0.51,1.75 1.34,2.16l3.22 1.62 0 7.66c0,1.29 0.7,2.47 1.82,3.08 6.06,3.26 13.39,3.25 19.42,0 0.37,-0.2 0.69,-0.46 0.96,-0.76l-0.1 0.35c-0.48,1.83 0.9,3.61 2.79,3.61l2.68 0c1.89,0 3.26,-1.78 2.78,-3.61 0,0 0,0 0,0l-0.59 -2.28c-0.29,-1.1 -1.1,-1.97 -2.13,-2.38l0 -9.45c0,-0.92 -0.52,-1.75 -1.34,-2.16l-13.1 -6.56c-1.03,-0.53 -2.28,-0.53 -3.31,0l-13.1 6.56zm29.45 14.15c0.45,0 0.74,0.25 0.82,0.55l0.6 2.28c0.01,0.05 -0.02,0.1 -0.08,0.1l-2.68 0c-0.06,0 -0.1,-0.05 -0.08,-0.1l0.59 -2.28c0.08,-0.31 0.37,-0.55 0.83,-0.55zm-3.16 -8.21l1.76 -0.89 0 6.56c-0.74,0.3 -1.36,0.82 -1.76,1.51l0 -7.18zm-2.8 7.66c0,0.26 -0.14,0.5 -0.35,0.62 -5.22,2.81 -11.56,2.81 -16.77,0 -0.21,-0.12 -0.35,-0.36 -0.35,-0.62l0 -6.26 7.07 3.54c1.02,0.51 2.26,0.53 3.32,0l7.08 -3.54 0 6.26zm-8.33 -17.67l9.64 4.83 -10.05 0c-0.77,0 -1.39,0.63 -1.39,1.4 0,0.77 0.62,1.4 1.39,1.4l10.05 0c-0.98,0.49 -8.55,4.28 -9.64,4.82 -0.25,0.13 -0.56,0.13 -0.81,0l-12.43 -6.22 12.43 -6.23c0.25,-0.12 0.56,-0.12 0.81,0z"/>
  </g>
 </g>
</svg>
