<?xml version="1.0" encoding="UTF-8"?>
<!DOCTYPE svg PUBLIC "-//W3C//DTD SVG 1.1//EN" "http://www.w3.org/Graphics/SVG/1.1/DTD/svg11.dtd">
<!-- Creator: CorelDRAW 2018 (64 Bit) -->
<svg xmlns="http://www.w3.org/2000/svg" xml:space="preserve" width="77px" height="97px" version="1.1" style="shape-rendering:geometricPrecision; text-rendering:geometricPrecision; image-rendering:optimizeQuality; fill-rule:evenodd; clip-rule:evenodd"
viewBox="0 0 77 97.29"
 xmlns:xlink="http://www.w3.org/1999/xlink">
 <defs>
  <style type="text/css">
   <![CDATA[
    .fil0 {fill:white}
   ]]>
  </style>
 </defs>
 <g id="Camada_x0020_1">
  <metadata id="CorelCorpID_0Corel-Layer"/>
  <path class="fil0" d="M66.58 63.56l-5.71 -1.68 -12.42 -8.11 0 -1.86c3.6,-2.71 6.07,-6.86 6.53,-11.61 1.8,-0.29 3.18,-1.86 3.18,-3.74l0 -5.12c0,-0.02 0,-0.04 0,-0.05l0 -6.48c0.72,-0.52 1.17,-1.35 1.17,-2.29l0 -5.93 8.58 -1.46c1.4,-0.24 2.42,-1.36 2.52,-2.79 0.1,-1.42 -0.75,-2.67 -2.11,-3.1l-28.9 -9.19c-0.61,-0.2 -1.24,-0.2 -1.84,0l-28.91 9.19c-1.36,0.43 -2.21,1.68 -2.11,3.1 0.07,0.91 0.5,1.69 1.17,2.2l0 7.75 -0.07 0c-1.63,0 -2.95,1.33 -2.95,2.95l0 3.85 -1.91 11.18c-0.33,1.94 1.16,3.71 3.13,3.71l6.45 0c1.96,0 3.46,-1.77 3.12,-3.71l-1.9 -11.18 0 -3.85c0,-1.62 -1.32,-2.95 -2.95,-2.95l-0.07 0 0 -6.91 7.08 1.21 0 5.93c0,0.93 0.46,1.77 1.17,2.28l0.01 6.54 0 5.12c0,1.88 1.38,3.45 3.18,3.74 0.46,4.75 2.93,8.89 6.52,11.61l0 1.86 -12.42 8.12 -5.7 1.67c-6.11,1.79 -10.42,7.4 -10.42,13.91l0 4.25c0,0.79 0.64,1.43 1.43,1.43 0.78,0 1.42,-0.64 1.42,-1.43l0 -4.25c0,-5.13 3.44,-9.73 8.37,-11.18l5.31 -1.56 21.24 12.62c0.43,0.26 1,0.27 1.46,0l21.24 -12.62 5.31 1.56c4.93,1.45 8.37,6.05 8.37,11.18l0 13.77c0,1.76 -1.44,3.2 -3.2,3.2l-6.28 0 0 -6.15c0,-0.78 -0.64,-1.42 -1.43,-1.42 -0.79,0 -1.43,0.64 -1.43,1.42l0 6.15 -46.63 0 0 -6.15c0,-0.78 -0.64,-1.42 -1.43,-1.42 -0.79,0 -1.42,0.64 -1.42,1.42l0 6.15 -6.28 0c-1.76,0 -3.2,-1.44 -3.2,-3.2l0 -2.86c0,-0.79 -0.64,-1.42 -1.42,-1.42 -0.79,0 -1.43,0.63 -1.43,1.42l0 2.86c0,3.33 2.72,6.05 6.05,6.05l64.9 0c3.33,0 6.05,-2.72 6.05,-6.05l0 -13.77c0,-6.36 -4.17,-12.08 -10.42,-13.91zm-54.2 -22.33l-6.45 0c-0.2,0 -0.35,-0.18 -0.32,-0.38l1.72 -10.11 3.64 0 1.73 10.11c0.03,0.2 -0.12,0.38 -0.32,0.38zm-1.63 -15.89l0 2.55 -3.19 0 0 -2.55c0,-0.05 0.04,-0.1 0.1,-0.1l2.99 0c0.05,0 0.1,0.05 0.1,0.1zm22.65 45.57l0.57 0.87 -14.55 -8.65 9.23 -6.03c0.42,4.92 2.04,9.64 4.75,13.81zm-0.01 -6.15c3.36,0.47 6.86,0.47 10.22,0 -0.65,1.59 -1.45,3.13 -2.4,4.59l-2.71 4.17 -2.71 -4.17c-0.95,-1.46 -1.75,-3 -2.4,-4.59zm10.21 6.15c2.7,-4.17 4.32,-8.89 4.74,-13.81l9.24 6.03 -14.55 8.65 0.57 -0.87zm8.33 -45.47l3.38 0 0 4.58 -1.68 0c-0.93,0 -1.7,-0.76 -1.7,-1.7l0 -2.88 0 0zm-42.39 -13.39l28.9 -9.19c0.04,-0.01 0.08,-0.01 0.11,0l28.9 9.19c0.06,0.02 0.15,0.05 0.13,0.2 -0.01,0.15 -0.09,0.16 -0.15,0.17l-9.56 1.63 -3.58 -0.45c-0.78,-0.09 -1.5,0.46 -1.59,1.24 -0.1,0.78 0.45,1.5 1.24,1.59l2.54 0.32 0 5.84 -35.97 0 0 -5.84 14.75 -1.83c2.15,-0.26 4.33,-0.26 6.47,0l5.58 0.69c0.78,0.1 1.5,-0.46 1.59,-1.24 0.1,-0.78 -0.46,-1.49 -1.24,-1.59l-5.58 -0.69c-2.38,-0.29 -4.79,-0.29 -7.17,0l-15.79 1.96 -9.56 -1.63c-0.06,-0.01 -0.14,-0.02 -0.15,-0.17 -0.01,-0.15 0.07,-0.18 0.13,-0.2l0 0zm12.15 17.97l-0.01 -4.58 3.39 0 0 2.88c0,0.94 -0.77,1.7 -1.71,1.7l-1.67 0 0 0zm3.13 9.55c-0.07,-1.16 -1.04,-2.07 -2.19,-2.07 -0.52,0 -0.94,-0.43 -0.94,-0.94l0 -3.69 1.67 0c2.51,0 4.56,-2.04 4.56,-4.55l0 -2.88 21.16 0 0 2.88c0,2.51 2.04,4.55 4.55,4.55l1.68 0 0 3.69c0,0.51 -0.42,0.94 -0.94,0.94 -1.16,0 -2.12,0.91 -2.19,2.07 -0.46,7.19 -6.47,12.83 -13.68,12.83 -7.22,0 -13.22,-5.64 -13.68,-12.83zm13.68 15.68c2.53,0 4.94,-0.58 7.1,-1.61l0 0.9c0,2.44 -0.33,4.84 -0.96,7.16 -3.87,0.74 -8.25,0.77 -12.28,0 -0.63,-2.32 -0.96,-4.72 -0.96,-7.16 0,-0.03 -0.01,-0.06 -0.01,-0.09 0,0 0,-0.01 0,-0.02l0 -0.79c2.16,1.03 4.57,1.61 7.11,1.61l0 0z"/>
 </g>
</svg>
