<?xml version="1.0" encoding="UTF-8"?>
<!DOCTYPE svg PUBLIC "-//W3C//DTD SVG 1.1//EN" "http://www.w3.org/Graphics/SVG/1.1/DTD/svg11.dtd">
<!-- Creator: CorelDRAW 2018 (64 Bit) -->
<svg xmlns="http://www.w3.org/2000/svg" xml:space="preserve" width="114px" height="70px" version="1.1" style="shape-rendering:geometricPrecision; text-rendering:geometricPrecision; image-rendering:optimizeQuality; fill-rule:evenodd; clip-rule:evenodd"
viewBox="0 0 113.49 70.07"
 xmlns:xlink="http://www.w3.org/1999/xlink">
 <defs>
  <style type="text/css">
   <![CDATA[
    .fil0 {fill:white}
   ]]>
  </style>
 </defs>
 <g id="Camada_x0020_1">
  <metadata id="CorelCorpID_0Corel-Layer"/>
  <path class="fil0" d="M107.82 66.36l0 -64.45c0,-1.03 -0.83,-1.91 -1.91,-1.91l-18.92 0c-1.04,0 -1.91,0.83 -1.91,1.91l0 64.4 -3.77 0 0 -38.47c0,-1.03 -0.82,-1.9 -1.91,-1.9l-18.92 0c-1.03,0 -1.91,0.82 -1.91,1.9l0 38.47 -3.76 0 0 -51.1c0,-1.03 -0.82,-1.91 -1.91,-1.91l-18.87 0c-1.03,0 -1.91,0.83 -1.91,1.91l0 51.1 -3.76 0 0 -28.36c0,-1.03 -0.83,-1.91 -1.91,-1.91l-18.92 0c-1.03,0 -1.91,0.83 -1.91,1.91l0 28.36 -5.62 0 0 3.76 113.49 0 0 -3.76 -5.67 0 0 0.05zm-83.22 0l-15.16 0 0 -26.5 15.1 0 0 26.5 0.06 0zm26.45 0l-15.11 0 0 -49.19 15.11 0 0 49.19zm26.5 0l-15.16 0 0 -36.56 15.11 0 0.05 36.56 0 0zm26.45 0l-15.11 0 0 -62.54 15.11 0 0 62.54z"/>
 </g>
</svg>
