<?xml version="1.0" encoding="UTF-8"?>
<!DOCTYPE svg PUBLIC "-//W3C//DTD SVG 1.1//EN" "http://www.w3.org/Graphics/SVG/1.1/DTD/svg11.dtd">
<!-- Creator: CorelDRAW 2018 (64 Bit) -->
<svg xmlns="http://www.w3.org/2000/svg" xml:space="preserve" width="183px" height="85px" version="1.1" style="shape-rendering:geometricPrecision; text-rendering:geometricPrecision; image-rendering:optimizeQuality; fill-rule:evenodd; clip-rule:evenodd"
viewBox="0 0 183 85.04"
 xmlns:xlink="http://www.w3.org/1999/xlink">
 <defs>
  <style type="text/css">
   <![CDATA[
    .str0 {stroke:white;stroke-width:10;stroke-miterlimit:22.9256}
    .str1 {stroke:white;stroke-width:10;stroke-miterlimit:22.9256;stroke-dasharray:62.820000 62.820000}
    .fil1 {fill:none}
    .fil0 {fill:white}
   ]]>
  </style>
 </defs>
 <g id="Camada_x0020_1">
  <metadata id="CorelCorpID_0Corel-Layer"/>
  <path class="fil0" d="M83.91 76.57l0 -50.16c0,-0.81 -0.64,-1.49 -1.48,-1.49l-14.73 0c-0.8,0 -1.48,0.64 -1.48,1.49l0 50.12 -2.93 0 0 -29.94c0,-0.8 -0.64,-1.48 -1.49,-1.48l-14.73 0c-0.8,0 -1.48,0.64 -1.48,1.48l0 29.94 -2.93 0 0 -39.77c0,-0.8 -0.64,-1.48 -1.49,-1.48l-14.68 0c-0.81,0 -1.49,0.64 -1.49,1.48l0 39.77 -2.93 0 0 -22.07c0,-0.8 -0.64,-1.49 -1.48,-1.49l-14.73 0c-0.8,0 -1.49,0.65 -1.49,1.49l0 22.07 -4.37 0 0 2.93 88.33 0 0 -2.93 -4.42 0 0 0.04zm-64.77 0l-11.8 0 0 -20.63 11.76 0 0 20.63 0.04 0zm20.59 0l-11.76 0 0 -38.28 11.76 0 0 38.28zm20.63 0l-11.8 0 0 -28.45 11.76 0 0 28.45 0.04 0zm20.59 0l-11.76 0 0 -48.68 11.76 0 0 48.68z"/>
  <g id="_1947385787616">
   <g>
    <g>
     <path class="fil0" d="M178.59 76.57l0 -75.09c0,-0.8 -0.65,-1.48 -1.49,-1.48l-14.73 0c-0.8,0 -1.48,0.64 -1.48,1.48l0 75.09 -2.93 0 0 -57.43c0,-0.8 -0.64,-1.48 -1.49,-1.48l-14.72 0c-0.81,0 -1.49,0.64 -1.49,1.48l0 57.43 -2.93 0 0 -39.77c0,-0.8 -0.64,-1.48 -1.48,-1.48l-14.73 0c-0.81,0 -1.49,0.64 -1.49,1.48l0 39.77 -2.93 0 0 -22.07c0,-0.8 -0.64,-1.49 -1.48,-1.49l-14.73 0c-0.8,0 -1.49,0.65 -1.49,1.49l0 22.07 -4.41 0 0 2.93 88.41 0 0 -2.93 -4.41 0zm-64.78 0l-11.76 0 0 -20.63 11.76 0 0 20.63zm20.63 0l-11.76 0 0 -38.28 11.76 0 0 38.28zm20.59 0l-11.76 0 0 -55.94 11.76 0 0 55.94zm20.63 0l-11.76 0 0 -73.64 11.76 0 0 73.64z"/>
    </g>
   </g>
  </g>
  <g id="_1947385785632">
   <g>
    <line class="fil1 str0" x1="91.5" y1="85.04" x2="91.5" y2= "82.63" />
    <line class="fil1 str1" x1="91.5" y1="77.78" x2="91.5" y2= "11.88" />
    <line class="fil1 str0" x1="91.5" y1="9.47" x2="91.5" y2= "7.06" />
   </g>
  </g>
 </g>
</svg>
