<?xml version="1.0" encoding="UTF-8"?>
<!DOCTYPE svg PUBLIC "-//W3C//DTD SVG 1.1//EN" "http://www.w3.org/Graphics/SVG/1.1/DTD/svg11.dtd">
<!-- Creator: CorelDRAW 2018 (64 Bit) -->
<svg xmlns="http://www.w3.org/2000/svg" xml:space="preserve" width="129px" height="96px" version="1.1" style="shape-rendering:geometricPrecision; text-rendering:geometricPrecision; image-rendering:optimizeQuality; fill-rule:evenodd; clip-rule:evenodd"
viewBox="0 0 10.45 7.76"
 xmlns:xlink="http://www.w3.org/1999/xlink">
 <defs>
  <style type="text/css">
   <![CDATA[
    .fil0 {fill:white}
   ]]>
  </style>
 </defs>
 <g id="Camada_x0020_1">
  <metadata id="CorelCorpID_0Corel-Layer"/>
  <g id="_1947385775808">
   <g>
    <path class="fil0" d="M8.82 6.59l0 0c-0.11,0 -0.2,0.09 -0.2,0.2 0,0.12 0.09,0.21 0.2,0.21l0 0c0.12,0 0.21,-0.09 0.21,-0.21 0,-0.11 -0.09,-0.2 -0.21,-0.2z"/>
   </g>
  </g>
  <g id="_1947385777120">
   <g>
    <path class="fil0" d="M10.45 6.79l0 -0.22c0,-0.5 -0.31,-0.93 -0.75,-1.1 0.14,-0.17 0.22,-0.38 0.22,-0.61 0,-0.51 -0.42,-0.93 -0.93,-0.93 0,0 0,0 -0.01,0 -0.13,-0.2 -0.32,-0.34 -0.54,-0.43 0.14,-0.16 0.22,-0.37 0.22,-0.6 0,-0.52 -0.41,-0.94 -0.92,-0.94 -0.01,0 -0.01,0 -0.01,0 -0.14,-0.19 -0.33,-0.34 -0.54,-0.42 0.14,-0.17 0.22,-0.38 0.22,-0.61 0,-0.51 -0.42,-0.93 -0.93,-0.93 -0.51,0 -0.92,0.42 -0.92,0.93 0,0.23 0.08,0.44 0.22,0.61 -0.22,0.08 -0.41,0.23 -0.54,0.42 -0.01,0 -0.01,0 -0.01,0 -0.01,0 -0.01,0 -0.01,0 -0.14,-0.19 -0.33,-0.34 -0.54,-0.42 0.13,-0.17 0.22,-0.38 0.22,-0.61 0,-0.51 -0.42,-0.93 -0.93,-0.93 -0.51,0 -0.93,0.42 -0.93,0.93 0,0.23 0.09,0.44 0.23,0.61 -0.22,0.08 -0.41,0.23 -0.55,0.42 0,0 0,0 0,0 -0.52,0 -0.93,0.42 -0.93,0.94 0,0.23 0.08,0.44 0.22,0.6 -0.22,0.09 -0.41,0.23 -0.54,0.43 0,0 -0.01,0 -0.01,0 -0.51,0 -0.93,0.42 -0.93,0.93 0,0.23 0.09,0.44 0.23,0.61 -0.45,0.17 -0.76,0.6 -0.76,1.1l0 0.98c0,0.12 0.09,0.21 0.2,0.21l10.05 0c0.11,0 0.2,-0.09 0.2,-0.21l0 -0.75c0,-0.01 0,-0.01 0,-0.01 0,0 0,0 0,0zm-1.46 -2.45c0.29,0 0.52,0.23 0.52,0.52 0,0.29 -0.23,0.53 -0.52,0.53 -0.28,0 -0.52,-0.24 -0.52,-0.53 0,-0.29 0.24,-0.52 0.52,-0.52zm-1.25 -1.97c0.28,0 0.52,0.24 0.52,0.53 0,0.29 -0.24,0.52 -0.52,0.52 -0.29,0 -0.52,-0.23 -0.52,-0.52 0,-0.29 0.23,-0.53 0.52,-0.53zm-1.26 -1.96c0.29,0 0.52,0.23 0.52,0.52 0,0.29 -0.23,0.53 -0.52,0.53 -0.28,0 -0.52,-0.24 -0.52,-0.53 0,-0.29 0.24,-0.52 0.52,-0.52zm-0.28 1.45l0.56 0c0.2,0 0.39,0.08 0.53,0.22 -0.28,0.16 -0.48,0.46 -0.48,0.82 0,0.23 0.08,0.44 0.22,0.6 -0.21,0.09 -0.4,0.23 -0.54,0.43 0,0 -0.01,0 -0.01,0 0,0 0,0 -0.01,0 -0.13,-0.2 -0.32,-0.34 -0.54,-0.43 0.14,-0.16 0.22,-0.37 0.22,-0.6 0,-0.36 -0.19,-0.66 -0.48,-0.82 0.14,-0.14 0.33,-0.22 0.53,-0.22zm0.8 3c0,0.29 -0.23,0.53 -0.52,0.53 -0.28,0 -0.52,-0.24 -0.52,-0.53 0,-0.29 0.24,-0.52 0.52,-0.52 0.29,0 0.52,0.23 0.52,0.52zm-1.77 -2.49c0.28,0 0.51,0.24 0.51,0.53 0,0.29 -0.23,0.52 -0.51,0.52 -0.29,0 -0.52,-0.23 -0.52,-0.52 0,-0.29 0.23,-0.53 0.52,-0.53zm-1.26 -1.96c0.29,0 0.52,0.23 0.52,0.52 0,0.29 -0.23,0.53 -0.52,0.53 -0.29,0 -0.52,-0.24 -0.52,-0.53 0,-0.29 0.23,-0.52 0.52,-0.52zm-0.28 1.45l0.56 0c0.2,0 0.39,0.08 0.53,0.22 -0.29,0.16 -0.48,0.46 -0.48,0.82 0,0.23 0.08,0.44 0.22,0.6 -0.22,0.09 -0.4,0.23 -0.54,0.43 0,0 -0.01,0 -0.01,0 0,0 -0.01,0 -0.01,0 -0.13,-0.2 -0.32,-0.34 -0.54,-0.43 0.14,-0.16 0.22,-0.37 0.22,-0.6 0,-0.36 -0.19,-0.66 -0.48,-0.82 0.14,-0.14 0.33,-0.22 0.53,-0.22zm0.8 3c0,0.29 -0.23,0.53 -0.52,0.53 -0.29,0 -0.52,-0.24 -0.52,-0.53 0,-0.29 0.23,-0.52 0.52,-0.52 0.29,0 0.52,0.23 0.52,0.52zm-1.77 -2.49c0.28,0 0.51,0.24 0.51,0.53 0,0.29 -0.23,0.52 -0.51,0.52 -0.29,0 -0.52,-0.23 -0.52,-0.52 0,-0.29 0.23,-0.53 0.52,-0.53zm-1.26 1.97c0.29,0 0.52,0.23 0.52,0.52 0,0.29 -0.23,0.53 -0.52,0.53 -0.29,0 -0.52,-0.24 -0.52,-0.53 0,-0.29 0.23,-0.52 0.52,-0.52zm1.05 3.01l-2.1 0 0 -0.35 0.63 0c0.11,0 0.21,-0.09 0.21,-0.21 0,-0.11 -0.1,-0.2 -0.21,-0.2l-0.63 0 0 -0.02c0,-0.43 0.35,-0.78 0.78,-0.78l0.54 0c0.43,0 0.78,0.35 0.78,0.78l0 0.78zm0.21 -1.44c-0.14,-0.2 -0.33,-0.36 -0.56,-0.44 0.14,-0.17 0.23,-0.38 0.23,-0.61 0,-0.35 -0.2,-0.66 -0.49,-0.82 0.15,-0.13 0.33,-0.21 0.53,-0.21l0.57 0c0.2,0 0.38,0.08 0.53,0.21 -0.29,0.16 -0.49,0.47 -0.49,0.82 0,0.23 0.09,0.44 0.23,0.61 -0.23,0.08 -0.42,0.24 -0.55,0.44zm2.3 1.44l-2.1 0 0 -0.78c0,-0.43 0.35,-0.78 0.78,-0.78l0.54 0c0.43,0 0.78,0.35 0.78,0.78l0 0.78zm0.21 -1.44c-0.14,-0.2 -0.33,-0.36 -0.56,-0.44 0.14,-0.17 0.23,-0.38 0.23,-0.61 0,-0.35 -0.2,-0.66 -0.48,-0.82 0.14,-0.13 0.33,-0.21 0.53,-0.21l0.56 0c0.2,0 0.39,0.08 0.53,0.21 -0.29,0.16 -0.48,0.47 -0.48,0.82 0,0.23 0.08,0.44 0.22,0.61 -0.23,0.08 -0.42,0.24 -0.55,0.44zm2.3 1.44l-2.1 0 0 -0.78c0,-0.43 0.35,-0.78 0.78,-0.78l0.55 0c0.42,0 0.77,0.35 0.77,0.78l0 0.78zm0.21 -1.44c-0.14,-0.2 -0.33,-0.36 -0.55,-0.44 0.13,-0.17 0.22,-0.38 0.22,-0.61 0,-0.35 -0.2,-0.66 -0.48,-0.82 0.14,-0.13 0.33,-0.21 0.53,-0.21l0.56 0c0.2,0 0.39,0.08 0.53,0.21 -0.29,0.16 -0.48,0.47 -0.48,0.82 0,0.23 0.08,0.44 0.22,0.61 -0.23,0.08 -0.42,0.24 -0.55,0.44zm2.3 0.68l-0.63 0c-0.11,0 -0.2,0.09 -0.2,0.2 0,0.12 0.09,0.21 0.2,0.21l0.63 0 0 0.35 -2.1 0 0 -0.78c0,-0.43 0.35,-0.78 0.78,-0.78l0.55 0c0.43,0 0.77,0.35 0.77,0.78l0 0.02z"/>
   </g>
  </g>
  <g id="_1947385778496">
   <g>
    <path class="fil0" d="M1.63 6.59l0 0c-0.11,0 -0.21,0.09 -0.21,0.2 0,0.12 0.1,0.21 0.21,0.21l0 0c0.12,0 0.21,-0.09 0.21,-0.21 0,-0.11 -0.09,-0.2 -0.21,-0.2z"/>
   </g>
  </g>
 </g>
</svg>
