<?xml version="1.0" encoding="UTF-8"?>
<!DOCTYPE svg PUBLIC "-//W3C//DTD SVG 1.1//EN" "http://www.w3.org/Graphics/SVG/1.1/DTD/svg11.dtd">
<!-- Creator: CorelDRAW 2018 (64 Bit) -->
<svg xmlns="http://www.w3.org/2000/svg" xml:space="preserve" width="92px" height="65px" version="1.1" style="shape-rendering:geometricPrecision; text-rendering:geometricPrecision; image-rendering:optimizeQuality; fill-rule:evenodd; clip-rule:evenodd"
viewBox="0 0 3.51 2.47"
 xmlns:xlink="http://www.w3.org/1999/xlink">
 <defs>
  <style type="text/css">
   <![CDATA[
    .fil0 {fill:white}
   ]]>
  </style>
 </defs>
 <g id="Camada_x0020_1">
  <metadata id="CorelCorpID_0Corel-Layer"/>
  <g id="_1947609898816">
   <g>
    <path class="fil0" d="M1.39 1.25c-0.02,-0.02 -0.07,-0.02 -0.09,0 -0.03,0.03 -0.03,0.08 0,0.1 0.02,0.03 0.07,0.03 0.09,0 0.03,-0.02 0.03,-0.07 0,-0.1z"/>
   </g>
  </g>
  <g id="_1947609900416">
   <g>
    <path class="fil0" d="M1.76 1.37c-0.12,0 -0.21,0.09 -0.21,0.21 0,0.11 0.09,0.2 0.21,0.2 0.11,0 0.2,-0.09 0.2,-0.2 0,-0.12 -0.09,-0.21 -0.2,-0.21zm0 0.28c-0.04,0 -0.07,-0.03 -0.07,-0.07 0,-0.04 0.03,-0.07 0.07,-0.07 0.03,0 0.06,0.03 0.06,0.07 0,0.04 -0.03,0.07 -0.06,0.07z"/>
   </g>
  </g>
  <g id="_1947609901152">
   <g>
    <path class="fil0" d="M1.76 1.03c-0.08,0 -0.15,0.01 -0.22,0.05 -0.04,0.01 -0.05,0.05 -0.04,0.09 0.02,0.03 0.06,0.05 0.09,0.03 0.05,-0.02 0.11,-0.03 0.17,-0.03 0.22,0 0.41,0.18 0.41,0.41 0,0.22 -0.19,0.41 -0.41,0.41 -0.23,0 -0.42,-0.19 -0.42,-0.41 0,0 0,-0.01 0,-0.01 0.01,-0.04 -0.02,-0.07 -0.06,-0.07 -0.04,0 -0.07,0.03 -0.07,0.07 0,0 0,0 0,0.01 0,0.3 0.24,0.55 0.55,0.55 0.3,0 0.55,-0.25 0.55,-0.55 0,-0.3 -0.25,-0.55 -0.55,-0.55z"/>
   </g>
  </g>
  <g id="_1947609901536">
   <g>
    <path class="fil0" d="M1.76 0c-0.04,0 -0.07,0.03 -0.07,0.07l0 0.41c0,0.04 0.03,0.07 0.07,0.07 0.03,0 0.06,-0.03 0.06,-0.07l0 -0.41c0,-0.04 -0.03,-0.07 -0.06,-0.07z"/>
   </g>
  </g>
  <g id="_1947609903488">
   <g>
    <path class="fil0" d="M0.99 0.51l-0.29 -0.29c-0.03,-0.03 -0.07,-0.03 -0.1,0 -0.02,0.02 -0.02,0.07 0,0.09l0.29 0.3c0.03,0.02 0.07,0.02 0.1,0 0.03,-0.03 0.03,-0.07 0,-0.1z"/>
   </g>
  </g>
  <g id="_1947609904064">
   <g>
    <path class="fil0" d="M2.91 0.22c-0.03,-0.03 -0.07,-0.03 -0.1,0l-0.29 0.29c-0.02,0.03 -0.02,0.07 0,0.1 0.03,0.02 0.07,0.02 0.1,0l0.29 -0.3c0.03,-0.02 0.03,-0.07 0,-0.09z"/>
   </g>
  </g>
  <g id="_1947609904192">
   <g>
    <path class="fil0" d="M3.5 1.59c-0.44,-0.49 -1.09,-0.9 -1.74,-0.9 -0.66,0 -1.31,0.41 -1.74,0.9 -0.03,0.03 -0.03,0.07 0,0.1 0.03,0.02 0.07,0.02 0.1,-0.01 0.01,-0.02 0.03,-0.03 0.04,-0.05 0.34,0.51 0.96,0.84 1.6,0.84 0.63,0 1.25,-0.33 1.59,-0.84 0.01,0.02 0.03,0.03 0.04,0.05 0.03,0.03 0.07,0.03 0.1,0.01 0.03,-0.03 0.03,-0.07 0.01,-0.1zm-1.74 0.74c-0.61,0 -1.19,-0.31 -1.5,-0.8 0.25,-0.24 0.81,-0.71 1.5,-0.71 0.68,0 1.25,0.47 1.49,0.71 -0.31,0.49 -0.89,0.8 -1.49,0.8z"/>
   </g>
  </g>
 </g>
</svg>
