<?xml version="1.0" encoding="UTF-8"?>
<!DOCTYPE svg PUBLIC "-//W3C//DTD SVG 1.1//EN" "http://www.w3.org/Graphics/SVG/1.1/DTD/svg11.dtd">
<!-- Creator: CorelDRAW 2018 (64 Bit) -->
<svg xmlns="http://www.w3.org/2000/svg" xml:space="preserve" width="127px" height="77px" version="1.1" style="shape-rendering:geometricPrecision; text-rendering:geometricPrecision; image-rendering:optimizeQuality; fill-rule:evenodd; clip-rule:evenodd"
viewBox="0 0 6058.59 3670.49"
 xmlns:xlink="http://www.w3.org/1999/xlink">
 <defs>
  <style type="text/css">
   <![CDATA[
    .fil0 {fill:white}
   ]]>
  </style>
 </defs>
 <g id="Camada_x0020_1">
  <metadata id="CorelCorpID_0Corel-Layer"/>
  <path class="fil0" d="M5989.11 3260.47l-798.56 -798.62c130.6,-196.75 198.39,-423.26 198.39,-659.68 0,-659.68 -537.36,-1197.03 -1197.04,-1197.03 -659.68,0 -1197.03,537.35 -1197.03,1197.03 0,659.68 537.35,1197.04 1197.03,1197.04 236.42,0 464.62,-67.79 659.68,-198.39l221.55 221.54c0,0 0,0 0,0l578.71 578.72c44.62,44.62 105.81,69.41 168.64,69.41 62.82,0 124.01,-24.79 168.63,-69.41 44.63,-44.69 69.48,-105.88 69.48,-168.7 0,-62.82 -23.16,-127.28 -69.48,-171.91zm-1165.65 -586.99c0,0 0,0 0,0 -185.14,133.93 -403.42,205.04 -631.56,205.04 -593.59,0 -1078.03,-482.76 -1078.03,-1077.98 0,-595.22 482.81,-1078.04 1078.03,-1078.04 595.22,0 1077.98,482.82 1077.98,1078.04 0,228.14 -71.11,446.41 -204.98,631.56 -67.84,92.57 -148.81,173.6 -241.44,241.38zm125.65 54.6c61.19,-51.28 119.06,-107.51 168.7,-168.64l170.27 170.27c-51.27,61.19 -109.14,117.42 -168.64,168.64l-170.33 -170.27zm955.66 785.32c-23.1,23.16 -52.91,34.71 -84.29,34.71 -31.44,0 -62.83,-13.18 -84.35,-34.71l-532.34 -532.39c61.13,-51.22 117.36,-109.09 168.64,-168.64l532.34 532.4c23.16,23.15 34.76,52.9 34.76,84.34 0,33.08 -11.6,62.83 -34.76,84.29z"/>
  <path class="fil0" d="M4191.9 843.25c-527.44,0 -957.29,429.85 -957.29,957.29 0,527.38 429.85,957.29 957.29,957.29 527.44,0 957.29,-429.91 957.29,-957.29 0,-527.44 -429.85,-957.29 -957.29,-957.29zm0 1795.52c-462.92,0 -838.29,-375.31 -838.29,-838.23 0,-462.98 375.37,-838.29 838.29,-838.29 462.93,0 838.24,375.31 838.24,838.29 0,462.92 -375.31,838.23 -838.24,838.23z"/>
  <g id="_1947445809152">
   <g>
    <g>
     <path class="fil0" d="M1665.54 1502.93c-31.39,-31.44 -84.29,-31.44 -115.73,0 -31.44,31.38 -31.44,84.29 0,115.73 31.44,31.38 84.34,31.38 115.73,0 33.07,-31.44 33.07,-84.35 0,-115.73z"/>
    </g>
   </g>
   <g>
    <g>
     <path class="fil0" d="M2100.4 1643.45c-135.62,0 -246.39,110.77 -246.39,246.34 0,135.62 110.77,246.39 246.39,246.39 135.57,0 246.34,-110.77 246.34,-246.39 0,-135.57 -110.77,-246.34 -246.34,-246.34zm0 329.05c-44.68,0 -82.71,-36.4 -82.71,-82.71 0,-44.63 36.4,-82.66 82.71,-82.66 44.63,0 82.66,36.4 82.66,82.66 0,44.68 -36.4,82.71 -82.66,82.71z"/>
    </g>
   </g>
   <g>
    <g>
     <path class="fil0" d="M2100.4 1231.74c-92.63,0 -180.24,18.2 -264.53,54.6 -41.36,18.2 -61.19,66.09 -41.36,107.45 18.2,41.36 66.15,61.19 107.45,41.36 62.82,-28.12 128.97,-41.36 198.44,-41.36 271.13,0 492.68,221.54 492.68,492.73 0,271.13 -221.55,492.67 -492.68,492.67 -271.18,0 -492.73,-221.54 -492.73,-492.67 0,-3.33 0,-4.96 0,-8.28 1.64,-44.63 -34.71,-82.66 -81.02,-84.35 -44.63,-1.63 -82.66,34.76 -84.29,81.02 0,3.33 0,8.28 0,11.61 0,362.07 294.28,656.35 656.35,656.35 362.13,0 656.41,-294.28 656.41,-656.35 0,-362.13 -292.65,-654.78 -654.72,-654.78z"/>
    </g>
   </g>
   <g>
    <g>
     <path class="fil0" d="M2100.4 0c-44.68,0 -82.71,36.4 -82.71,82.66l0 492.73c0,44.62 36.4,82.65 82.71,82.65 44.63,0 82.66,-36.39 82.66,-82.65l0 -492.73c0,-44.63 -36.4,-82.66 -82.66,-82.66z"/>
    </g>
   </g>
   <g>
    <g>
     <path class="fil0" d="M1182.78 610.1l-348.88 -348.89c-31.44,-31.38 -84.35,-31.38 -115.74,0 -31.44,31.44 -31.44,84.35 0,115.73l348.89 348.89c31.38,31.44 84.29,31.44 115.73,0 33.07,-33.08 33.07,-84.29 0,-115.73z"/>
    </g>
   </g>
   <g>
    <g>
     <path class="fil0" d="M3482.58 261.21c-31.38,-31.38 -84.29,-31.38 -115.73,0l-348.83 348.89c-31.44,31.44 -31.44,84.34 0,115.73 31.39,31.44 84.3,31.44 115.74,0l348.82 -348.89c33.08,-31.38 33.08,-84.29 0,-115.73z"/>
    </g>
   </g>
   <g>
    <g>
     <path class="fil0" d="M4183.62 1903.03c-522.48,-590.26 -1296.26,-1081.31 -2081.58,-1081.31 -785.33,0 -1560.8,491.05 -2081.59,1081.31 -29.8,34.71 -26.48,85.98 6.6,115.73 34.7,29.75 85.98,26.48 115.73,-6.59 18.2,-19.84 34.7,-39.73 52.9,-59.56 405.06,613.42 1142.5,1003.61 1906.36,1003.61 763.86,0 1499.6,-390.19 1906.35,-1003.61 18.14,19.83 36.34,39.72 52.91,59.56 29.75,33.07 81.02,38.03 115.73,6.59 33.07,-29.75 36.34,-81.02 6.59,-115.73zm-2083.22 889.51c-722.56,0 -1416.94,-375.31 -1788.99,-960.62 292.66,-286 968.9,-846.51 1788.99,-846.51 820.04,0 1496.28,558.82 1788.93,846.51 -371.98,585.31 -1066.43,960.62 -1788.93,960.62z"/>
    </g>
   </g>
  </g>
 </g>
</svg>
