<?xml version="1.0" encoding="UTF-8"?>
<!DOCTYPE svg PUBLIC "-//W3C//DTD SVG 1.1//EN" "http://www.w3.org/Graphics/SVG/1.1/DTD/svg11.dtd">
<!-- Creator: CorelDRAW 2018 (64 Bit) -->
<svg xmlns="http://www.w3.org/2000/svg" xml:space="preserve" width="84px" height="96px" version="1.1" style="shape-rendering:geometricPrecision; text-rendering:geometricPrecision; image-rendering:optimizeQuality; fill-rule:evenodd; clip-rule:evenodd"
viewBox="0 0 3.6 4.1"
 xmlns:xlink="http://www.w3.org/1999/xlink">
 <defs>
  <style type="text/css">
   <![CDATA[
    .fil0 {fill:white}
   ]]>
  </style>
 </defs>
 <g id="Camada_x0020_1">
  <metadata id="CorelCorpID_0Corel-Layer"/>
  <path class="fil0" d="M1.8 0c-0.6,0 -1.08,0.48 -1.08,1.08 0,0.6 0.48,1.08 1.08,1.08 0.6,0 1.08,-0.48 1.08,-1.08 0,-0.6 -0.48,-1.08 -1.08,-1.08zm0 1.92c-0.46,0 -0.84,-0.38 -0.84,-0.84 0,-0.46 0.38,-0.84 0.84,-0.84 0.46,0 0.84,0.38 0.84,0.84 0,0.46 -0.38,0.84 -0.84,0.84z"/>
  <path class="fil0" d="M2.14 2.41l-0.67 0c-0.56,0 -1.1,0.25 -1.47,0.8l0 0.89 3.6 0 0 -0.89c-0.36,-0.54 -0.91,-0.8 -1.46,-0.8zm1.22 1.45l0 0 -3.12 0 0 -0.57c0.28,-0.4 0.74,-0.64 1.23,-0.64l0.67 0c0.49,0 0.94,0.24 1.22,0.64l0 0.57z"/>
 </g>
</svg>
